<svg width="131" height="131" viewBox="0 0 131 131" fill="none" xmlns="http://www.w3.org/2000/svg">
<circle cx="65.4999" cy="65.5002" r="44.6454" fill="white" stroke="#426EAA"/>
<circle cx="65.4999" cy="65.4999" r="52.496" stroke="white" stroke-width="2"/>
<circle opacity="0.5" cx="65.5" cy="65.5" r="64.5" stroke="white" stroke-width="2"/>
<path d="M75.1256 62.2415L59.4282 54.2893C58.8268 53.9477 58.147 53.7681 57.4554 53.7681C56.7637 53.7681 56.0839 53.9477 55.4825 54.2893C54.8946 54.6901 54.4229 55.2389 54.1149 55.8804C53.807 56.5219 53.6739 57.2332 53.7289 57.9426V73.7496C53.6764 74.4587 53.8106 75.1692 54.1183 75.8103C54.426 76.4513 54.8964 77.0005 55.4825 77.403C56.026 77.7305 56.6504 77.8993 57.2849 77.8901C58.0323 77.8774 58.7664 77.6897 59.4282 77.3421L75.1256 69.4143C77.4516 68.1965 77.7925 66.6864 77.7925 65.8583C77.7925 65.0302 77.4516 63.4227 75.1256 62.2415ZM74.0174 67.1857L58.3322 75.1379C58.1009 75.2911 57.8352 75.3845 57.559 75.41C57.2827 75.4355 57.0045 75.3923 56.749 75.2841C56.5329 75.0961 56.3665 74.8577 56.2646 74.5901C56.1626 74.3224 56.1282 74.0337 56.1645 73.7496V57.8452C56.1282 57.5611 56.1626 57.2724 56.2646 57.0048C56.3665 56.7371 56.5329 56.4988 56.749 56.3108C56.8982 56.2275 57.0654 56.1816 57.2362 56.1768C57.6032 56.1915 57.9618 56.2916 58.2835 56.4691L74.0174 64.4213C74.8455 64.8354 75.357 65.3712 75.357 65.7974C75.357 66.2237 74.8455 66.7595 74.0174 67.1857Z" fill="#19385E"/>
</svg>
