<svg width="52" height="51" viewBox="0 0 52 51" fill="none" xmlns="http://www.w3.org/2000/svg">
<g clip-path="url(#clip0_249_57)">
<path d="M50.8215 22.5138C48.9394 19.503 45.7153 14.3442 44.6341 12.6139C45.598 9.50009 46.0865 6.27134 46.0865 3.00543V1.6715C46.0865 0.850474 45.4207 0.185059 44.6001 0.185059C43.779 0.185059 43.1136 0.850474 43.1136 1.6715V3.00543C43.1136 6.18695 42.6034 9.32938 41.5978 12.346C41.5312 12.5446 41.4116 13.0668 41.7472 13.6041C41.7472 13.6041 46.0141 20.432 48.3007 24.0897C48.7602 24.8252 48.653 25.767 48.0394 26.3805L45.1408 29.2791C44.9221 29.4982 44.7766 29.7803 44.7259 30.0858L43.1705 39.4051L41.6783 42.3892C41.4851 42.7751 41.5215 42.9892 41.5215 43.9871C41.5215 46.1645 39.7498 47.9362 37.5724 47.9362C34.5201 47.9362 23.3889 48.3988 13.8079 38.8186C13.2277 38.2384 12.2862 38.2384 11.706 38.819C11.1253 39.3993 11.1253 40.3407 11.706 40.9209C13.043 42.2579 14.4764 43.4707 15.9962 44.5569L14.531 48.9524C14.2178 49.893 14.9053 50.9091 15.9416 50.9091C16.564 50.9091 17.1439 50.5154 17.3514 49.8926L18.5734 46.2268C27.4278 51.4108 35.5022 50.9087 37.5724 50.9087C41.3891 50.9087 44.4944 47.8038 44.4944 43.9867V43.4049C46.0385 40.3159 46.0157 40.4173 46.0664 40.1138L47.5799 31.0442L50.1417 28.4824C51.7396 26.8845 52.0195 24.4303 50.8215 22.5138Z" fill="#F95738"/>
<path d="M13.3488 28.7379C13.3488 27.9172 12.6834 27.2514 11.8624 27.2514H10.463C7.453 27.2514 3.79612 24.7977 3.79612 20.895C3.79612 17.2602 6.75352 14.3032 10.3883 14.3032C12.6056 14.3032 18.5212 14.6295 23.7849 9.36461L30.427 2.72246C30.6961 2.45382 30.8625 2.08221 30.8625 1.6715C30.8625 0.850473 30.1967 0.185059 29.3761 0.185059C28.9654 0.185059 28.5934 0.351896 28.3243 0.620926L21.6822 7.26269C17.2701 11.6759 12.2541 11.3303 10.3879 11.3303C5.11418 11.3303 0.823242 15.6208 0.823242 20.8954C0.823242 25.5463 4.86915 30.2243 10.463 30.2243H11.8624C12.6834 30.2243 13.3488 29.5589 13.3488 28.7379Z" fill="#F95738"/>
<path d="M10.2703 19.0796C11.0913 19.0796 11.7567 18.4138 11.7567 17.5931C11.7567 16.7721 11.0913 16.1067 10.2703 16.1067C7.69495 16.1067 5.59961 18.202 5.59961 20.7774C5.59961 23.3527 7.69495 25.448 10.2703 25.448C11.0913 25.448 11.7567 24.7826 11.7567 23.9616C11.7567 23.1406 11.0913 22.4752 10.2703 22.4752C9.33429 22.4752 8.57249 21.7134 8.57249 20.7774C8.57249 19.841 9.33429 19.0796 10.2703 19.0796Z" fill="#F95738"/>
<path d="M19.9611 40.0492C20.1635 40.8056 20.9532 41.322 21.7816 41.1006C22.4547 40.9202 22.8937 40.3051 22.8817 39.6381L27.6294 42.3795C28.4415 42.8483 29.3109 42.4403 29.6601 41.8353C30.0704 41.1246 29.8269 40.2153 29.1159 39.805L24.3681 37.0636C24.9515 36.7407 25.2643 36.0532 25.0839 35.3801C24.8714 34.5869 24.0558 34.1166 23.2634 34.3291L20.1879 35.1533C19.3952 35.3658 18.9244 36.1806 19.137 36.9738L19.9611 40.0492Z" fill="#F95738"/>
<path d="M26.7601 12.6982C26.1795 12.1175 25.2385 12.1175 24.6582 12.6982L22.4069 14.9495C21.8266 15.5302 21.8266 16.4712 22.4069 17.0514L24.6582 19.3032C25.2388 19.8838 26.1799 19.8838 26.7601 19.3035C27.2533 18.8108 27.3261 18.0583 26.9819 17.4873H32.4647C33.2858 17.4873 33.9512 16.8215 33.9512 16.0009C33.9512 15.1798 33.2858 14.5144 32.4647 14.5144H26.9819C27.3261 13.9427 27.2529 13.1909 26.7601 12.6982Z" fill="#F95738"/>
<path d="M23.3514 22.3695C23.3514 21.5485 22.686 20.8831 21.865 20.8831H18.6808C17.8597 20.8831 17.1943 21.5485 17.1943 22.3695V25.5537C17.1943 26.3747 17.8597 27.0402 18.6808 27.0402C19.3775 27.0402 19.9609 26.5598 20.1219 25.9126L23.9983 29.7889C24.5789 30.3695 25.5199 30.3695 26.1006 29.7889C26.6808 29.2087 26.6808 28.2676 26.1006 27.687L22.2238 23.8103C22.8711 23.6496 23.3514 23.0663 23.3514 22.3695Z" fill="#F95738"/>
</g>
<defs>
<clipPath id="clip0_249_57">
<rect width="50.7372" height="50.7372" fill="white" transform="translate(0.823242 0.0859375)"/>
</clipPath>
</defs>
</svg>
