<svg width="52" height="52" viewBox="0 0 52 52" fill="none" xmlns="http://www.w3.org/2000/svg">
<g clip-path="url(#clip0_249_125)">
<path d="M44.3474 19.9331V18.7555C44.3474 8.55109 36.0906 0.293213 25.8852 0.293213C15.7051 0.293213 7.42291 8.57536 7.42291 18.7555V19.9331C3.37341 21.0814 0.279948 24.9485 0.530847 29.6232C0.802041 34.6755 5.04026 38.6277 10.0272 38.6277C12.4848 38.6277 14.4773 36.6443 14.4773 34.1852V24.0136C14.4773 21.6858 12.6821 19.7665 10.4074 19.5868V18.7556C10.4074 10.2211 17.3507 3.27783 25.8852 3.27783C34.4401 3.27783 41.3629 10.1997 41.3629 18.7556V19.5865C39.0908 19.7638 37.293 21.6842 37.293 24.0137V34.1853C37.293 36.5129 39.08 38.4195 41.3629 38.6109C41.3629 42.65 38.2002 45.4591 34.6527 45.4591H31.4043C30.8073 43.9462 29.3319 42.8725 27.6094 42.8725H24.1607C21.9117 42.8725 20.0819 44.7023 20.0819 46.9513C20.0819 49.2004 21.9117 51.0302 24.1607 51.0302H27.6094C29.3319 51.0302 30.8073 49.9565 31.4043 48.4436H34.6526C39.9983 48.4436 44.3473 44.0942 44.3473 38.7479V38.2585C48.1551 37.161 51.0187 33.7362 51.2394 29.6233C51.4895 24.9647 48.411 21.0856 44.3474 19.9331ZM11.4928 24.0136V34.1852C11.4928 34.9391 10.9132 35.661 9.9119 35.642C6.50497 35.5751 3.69335 32.8611 3.51099 29.4633C3.30795 25.6814 6.30331 22.5562 10.0442 22.5562H10.0698C10.8544 22.5591 11.4928 23.213 11.4928 24.0136ZM27.6095 48.0456H24.1608C23.5574 48.0456 23.0665 47.5546 23.0665 46.9512C23.0665 46.3479 23.5574 45.8569 24.1608 45.8569H27.6095C28.2139 45.8569 28.7052 46.3495 28.7037 46.9541C28.7021 47.5562 28.2119 48.0456 27.6095 48.0456ZM48.2592 29.4633C48.0769 32.8611 45.2653 35.5751 41.8584 35.642C40.8754 35.6619 40.2774 34.9553 40.2774 34.1852V24.0136C40.2774 23.213 40.9158 22.5591 41.6948 22.5562H41.7259C45.4674 22.5562 48.4623 25.6818 48.2592 29.4633Z" fill="#F95738"/>
<path d="M26.9392 37.3454L33.8299 30.4548C35.9765 28.3082 35.9767 24.8339 33.8299 22.6872C31.8554 20.7126 28.4336 20.3167 25.8841 22.8655C23.3691 20.3512 19.9426 20.6827 17.9382 22.6871C15.7915 24.8338 15.7914 28.308 17.9382 30.4548L24.8289 37.3454C25.4115 37.9281 26.3564 37.9282 26.9392 37.3454ZM20.0484 24.7975C21.0262 23.8198 22.6173 23.8197 23.5952 24.7975L24.8287 26.031C25.4114 26.6138 26.3563 26.6138 26.9391 26.031L28.1726 24.7975C29.1505 23.8197 30.7415 23.8196 31.7194 24.7975C32.6995 25.7775 32.6997 27.364 31.7194 28.3443L25.8839 34.1797L20.0483 28.3443C19.0683 27.3643 19.0682 25.7778 20.0484 24.7975Z" fill="#F95738"/>
</g>
<defs>
<clipPath id="clip0_249_125">
<rect width="50.7372" height="50.7372" fill="white" transform="translate(0.515625 0.292236)"/>
</clipPath>
</defs>
</svg>
