<svg width="52" height="51" viewBox="0 0 52 51" fill="none" xmlns="http://www.w3.org/2000/svg">
<path d="M20.566 34.2753L27.5731 13.2538C27.8326 12.475 27.4117 11.6332 26.6329 11.3735C25.8542 11.114 25.0123 11.5349 24.7527 12.3137L17.7456 33.3352C17.4861 34.114 17.9069 34.9558 18.6857 35.2155C18.8416 35.2674 19.0002 35.2921 19.1559 35.2921C19.7783 35.2922 20.3583 34.8983 20.566 34.2753Z" fill="#F95738"/>
<path d="M31.0677 27.7538C33.5266 27.7538 35.527 25.7534 35.527 23.2945C35.527 20.8357 33.5266 18.8352 31.0677 18.8352C28.6089 18.8352 26.6084 20.8357 26.6084 23.2945C26.6084 25.7534 28.6089 27.7538 31.0677 27.7538ZM31.0677 21.8081C31.8873 21.8081 32.5542 22.4749 32.5542 23.2945C32.5542 24.1142 31.8873 24.781 31.0677 24.781C30.2481 24.781 29.5813 24.1142 29.5813 23.2945C29.5813 22.4749 30.2481 21.8081 31.0677 21.8081Z" fill="#F95738"/>
<path d="M14.2503 18.8352C11.7915 18.8352 9.79102 20.8357 9.79102 23.2945C9.79102 25.7534 11.7915 27.7538 14.2503 27.7538C16.7092 27.7538 18.7097 25.7534 18.7097 23.2945C18.7097 20.8357 16.7093 18.8352 14.2503 18.8352ZM14.2503 24.781C13.4307 24.781 12.7639 24.1142 12.7639 23.2945C12.7639 22.4749 13.4307 21.8081 14.2503 21.8081C15.07 21.8081 15.7368 22.4749 15.7368 23.2945C15.7368 24.1142 15.0701 24.781 14.2503 24.781Z" fill="#F95738"/>
<path d="M50.8344 18.518L45.651 11.6068L45.8532 10.1914C45.9193 9.7282 45.7637 9.26087 45.4328 8.93008L42.2795 5.77685L45.4327 2.62361C46.0132 2.0432 46.0132 1.10199 45.4327 0.521486C44.8523 -0.0589198 43.9111 -0.0589198 43.3306 0.521486L40.1774 3.67472L37.0242 0.521486C36.6934 0.190604 36.2261 0.0354197 35.7629 0.101021L21.0478 2.20315C20.7294 2.24863 20.4344 2.39618 20.207 2.62361L1.98837 20.8422C-0.136747 22.9672 -0.136747 26.4251 1.98837 28.5501L17.404 43.9659C17.7194 44.2812 18.0646 44.5487 18.43 44.7704V45.3731C18.43 48.3783 20.875 50.8233 23.8803 50.8233H45.6814C48.6867 50.8233 51.1317 48.3783 51.1317 45.3731V19.4099C51.1317 19.0883 51.0273 18.7753 50.8344 18.518ZM4.09049 26.448C3.1245 25.482 3.1245 23.9103 4.09049 22.9443L21.9587 5.07614L35.4475 3.14922L38.0752 5.77695L35.9731 7.87907L34.922 6.82796C34.3415 6.24755 33.4003 6.24755 32.8198 6.82796C32.2393 7.40836 32.2393 8.34958 32.8198 8.93008L37.0242 13.1344C37.3144 13.4247 37.6949 13.5699 38.0752 13.5699C38.4555 13.5699 38.836 13.4247 39.1262 13.1344C39.7067 12.554 39.7067 11.6128 39.1262 11.0323L38.0751 9.98119L40.1772 7.87907L42.8049 10.5068L40.8779 23.9956L23.0098 41.8638C22.5419 42.3317 21.9198 42.5893 21.258 42.5893C20.5962 42.5893 19.9741 42.3316 19.5062 41.8638L4.09049 26.448ZM48.1588 45.3731C48.1588 46.7391 47.0474 47.8505 45.6814 47.8505H23.8803C22.5758 47.8505 21.5043 46.8369 21.4103 45.556C22.7547 45.5187 24.0881 44.9897 25.1118 43.9659L43.3305 25.7473C43.5579 25.5199 43.7054 25.2248 43.7509 24.9064L45.0563 15.7688L48.1588 19.9054V45.3731Z" fill="#F95738"/>
</svg>
