<svg width="51" height="51" viewBox="0 0 51 51" fill="none" xmlns="http://www.w3.org/2000/svg">
<path d="M13.356 5.53735H12.6133C10.0801 5.53735 8.01929 7.59815 8.01929 10.1312V10.4924H6.18889V13.4653H23.496V10.4924H21.6656V10.1312C21.6656 7.59805 19.6048 5.53735 17.0717 5.53735H16.3289V3.05955H34.6372V5.53735H33.8945C31.3613 5.53735 29.3005 7.59815 29.3005 10.1312V10.4924H27.4701V13.4653H44.7772V10.4924H42.9468V10.1312C42.9468 7.59805 40.8859 5.53735 38.3528 5.53735H37.6101V3.05955H47.4065V0.0866699H3.55957V3.05955H13.356V5.53735ZM18.6927 10.1312V10.4924H10.9921V10.1312C10.9921 9.2373 11.7193 8.51023 12.6132 8.51023H17.0716C17.9657 8.51023 18.6927 9.2374 18.6927 10.1312ZM39.9739 10.1312V10.4924H32.2732V10.1312C32.2732 9.2373 33.0005 8.51023 33.8944 8.51023H38.3527C39.2467 8.51023 39.9739 9.2374 39.9739 10.1312Z" fill="#F95738"/>
<path d="M50.868 32.2914V29.3185H48.8931V28.9959C48.8931 26.1137 46.5481 23.7688 43.6659 23.7688H7.30046C4.41815 23.7688 2.07324 26.1137 2.07324 28.9959V29.3185H0.130859V32.2914H23.9968V36.916H21.0237V43.6215H13.4763C11.491 43.6215 9.87577 45.2367 9.87577 47.222C9.87577 49.2072 11.491 50.8224 13.4763 50.8224C15.4616 50.8224 17.0768 49.2072 17.0768 47.222C17.0768 47.0078 17.057 46.7983 17.0209 46.5944H33.9454C33.9093 46.7983 33.8895 47.0078 33.8895 47.222C33.8895 49.2072 35.5048 50.8224 37.4901 50.8224C39.4754 50.8224 41.0905 49.2072 41.0905 47.222C41.0905 45.2367 39.4754 43.6215 37.4901 43.6215H29.9427V36.916H26.9696V32.2914H50.868ZM14.1039 47.222C14.1039 47.568 13.8224 47.8495 13.4763 47.8495C13.1303 47.8495 12.8486 47.568 12.8486 47.222C12.8486 46.8759 13.1303 46.5944 13.4763 46.5944C13.8224 46.5944 14.1039 46.8759 14.1039 47.222ZM38.1176 47.222C38.1176 47.568 37.8361 47.8495 37.4901 47.8495C37.144 47.8495 36.8624 47.568 36.8624 47.222C36.8624 46.8759 37.144 46.5944 37.4901 46.5944C37.8361 46.5944 38.1176 46.8759 38.1176 47.222ZM26.9698 43.6215H23.9966V39.8889H26.9698V43.6215ZM5.04612 28.9959C5.04612 27.753 6.0574 26.7417 7.30046 26.7417H43.666C44.909 26.7417 45.9203 27.753 45.9203 28.9959V29.3185H5.04612V28.9959Z" fill="#F95738"/>
</svg>
