<svg width="8" height="14" viewBox="0 0 8 14" fill="none" xmlns="http://www.w3.org/2000/svg">
<path d="M0.251636 7.5264L6.25577 13.5304C6.39464 13.6694 6.58002 13.746 6.77768 13.746C6.97535 13.746 7.16072 13.6694 7.29959 13.5304L7.74175 13.0884C8.02947 12.8003 8.02947 12.3322 7.74175 12.0446L2.69993 7.00274L7.74735 1.95532C7.88622 1.81634 7.96289 1.63107 7.96289 1.43352C7.96289 1.23575 7.88622 1.05048 7.74735 0.911394L7.30519 0.46945C7.16621 0.330472 6.98094 0.253908 6.78328 0.253908C6.58562 0.253908 6.40024 0.330472 6.26137 0.46945L0.251636 6.47896C0.112438 6.61838 0.0359837 6.80453 0.0364224 7.00241C0.0359837 7.20106 0.112438 7.38709 0.251636 7.5264Z" fill="#19385E"/>
</svg>
