<svg width="9" height="14" viewBox="0 0 9 14" fill="none" xmlns="http://www.w3.org/2000/svg">
<path d="M8.55794 6.4736L2.5538 0.469571C2.41493 0.330592 2.22955 0.254028 2.03189 0.254028C1.83423 0.254028 1.64885 0.330592 1.50998 0.469571L1.06782 0.911624C0.780098 1.19967 0.780098 1.66783 1.06782 1.95544L6.10964 6.99726L1.06222 12.0447C0.923353 12.1837 0.84668 12.3689 0.84668 12.5665C0.84668 12.7643 0.923353 12.9495 1.06222 13.0886L1.50439 13.5306C1.64336 13.6695 1.82863 13.7461 2.02629 13.7461C2.22396 13.7461 2.40933 13.6695 2.5482 13.5306L8.55794 7.52104C8.69713 7.38162 8.77359 7.19547 8.77315 6.99759C8.77359 6.79894 8.69713 6.61291 8.55794 6.4736Z" fill="#19385E"/>
</svg>
