<svg width="30" height="30" viewBox="0 0 30 30" fill="none" xmlns="http://www.w3.org/2000/svg">
<g opacity="0.6">
<path d="M24.2079 2.31032H23.089V1.17803C23.089 0.531094 22.5645 0.00667953 21.9176 0.00667953C21.2707 0.00667953 20.7462 0.531094 20.7462 1.17803V2.31032H9.25369V1.17803C9.25369 0.531094 8.72928 0.00667953 8.08234 0.00667953C7.4354 0.00667953 6.91098 0.531094 6.91098 1.17803V2.31032H5.79205C2.5983 2.31032 0 4.90862 0 8.10231V24.2013C0 27.395 2.5983 29.9933 5.79205 29.9933H24.208C27.4017 29.9933 30 27.395 30 24.2013V8.10231C30 4.90862 27.4017 2.31032 24.2079 2.31032ZM5.79205 4.65303H6.91098V6.93716C6.91098 7.5841 7.4354 8.10852 8.08234 8.10852C8.72928 8.10852 9.25369 7.5841 9.25369 6.93716V4.65303H20.7463V6.93716C20.7463 7.5841 21.2707 8.10852 21.9177 8.10852C22.5646 8.10852 23.089 7.5841 23.089 6.93716V4.65303H24.208C26.1099 4.65303 27.6573 6.20038 27.6573 8.10231V9.2213H2.34271V8.10231C2.34271 6.20038 3.89006 4.65303 5.79205 4.65303ZM24.2079 27.6506H5.79205C3.89006 27.6506 2.34271 26.1032 2.34271 24.2013V11.564H27.6573V24.2013C27.6573 26.1032 26.1099 27.6506 24.2079 27.6506ZM10.4055 16.1713C10.4055 16.8183 9.88113 17.3427 9.23419 17.3427H6.93055C6.28361 17.3427 5.75919 16.8183 5.75919 16.1713C5.75919 15.5244 6.28361 15 6.93055 15H9.23419C9.88107 15 10.4055 15.5244 10.4055 16.1713ZM24.2409 16.1713C24.2409 16.8183 23.7164 17.3427 23.0695 17.3427H20.7659C20.1189 17.3427 19.5945 16.8183 19.5945 16.1713C19.5945 15.5244 20.1189 15 20.7659 15H23.0695C23.7164 15 24.2409 15.5244 24.2409 16.1713ZM17.3165 16.1713C17.3165 16.8183 16.7921 17.3427 16.1452 17.3427H13.8415C13.1946 17.3427 12.6702 16.8183 12.6702 16.1713C12.6702 15.5244 13.1946 15 13.8415 15H16.1452C16.7921 15 17.3165 15.5244 17.3165 16.1713ZM10.4055 23.0823C10.4055 23.7293 9.88113 24.2537 9.23419 24.2537H6.93055C6.28361 24.2537 5.75919 23.7293 5.75919 23.0823C5.75919 22.4354 6.28361 21.911 6.93055 21.911H9.23419C9.88107 21.911 10.4055 22.4354 10.4055 23.0823ZM24.2409 23.0823C24.2409 23.7293 23.7164 24.2537 23.0695 24.2537H20.7659C20.1189 24.2537 19.5945 23.7293 19.5945 23.0823C19.5945 22.4354 20.1189 21.911 20.7659 21.911H23.0695C23.7164 21.911 24.2409 22.4354 24.2409 23.0823ZM17.3165 23.0823C17.3165 23.7293 16.7921 24.2537 16.1452 24.2537H13.8415C13.1946 24.2537 12.6702 23.7293 12.6702 23.0823C12.6702 22.4354 13.1946 21.911 13.8415 21.911H16.1452C16.7921 21.911 17.3165 22.4354 17.3165 23.0823Z" fill="#19385E"/>
</g>
</svg>
