<svg width="28" height="23" viewBox="0 0 28 23" fill="none" xmlns="http://www.w3.org/2000/svg">
<path d="M28 12.4297C28 10.9907 26.8293 9.82004 25.3904 9.82004H24.1443L20.5117 3.26459H18.4297V2.47461C18.4297 1.1102 17.3195 0 15.9551 0C14.5907 0 13.4805 1.1102 13.4805 2.47461V3.26437H0V19.2393H2.94672C3.12637 20.8344 4.48288 22.0784 6.125 22.0784C7.76712 22.0784 9.12363 20.8344 9.30328 19.2393H18.7954C18.9753 20.8344 20.3316 22.0784 21.9739 22.0784C23.616 22.0784 24.9725 20.8344 25.1522 19.2393H28V12.4297ZM22.2687 9.82004H16.6816V4.905H19.5452L22.2687 9.82004ZM15.1211 2.47461C15.1211 2.01468 15.4951 1.64062 15.9551 1.64062C16.415 1.64062 16.7891 2.01489 16.7891 2.47461V3.26437H15.1211V2.47461ZM1.64062 4.90521H15.041V17.5989H9.05612C8.56116 16.4703 7.43387 15.6799 6.125 15.6799C4.81613 15.6799 3.68884 16.4706 3.19388 17.5989H1.64062V4.90521ZM6.125 20.4377C5.26559 20.4377 4.56641 19.7386 4.56641 18.8792C4.56641 18.0197 5.26559 17.3206 6.125 17.3206C6.98441 17.3206 7.68359 18.0197 7.68359 18.8792C7.68359 19.7386 6.98441 20.4377 6.125 20.4377ZM21.9739 20.4377C21.1145 20.4377 20.4153 19.7386 20.4153 18.8792C20.4153 18.0197 21.1145 17.3206 21.9739 17.3206C22.8333 17.3206 23.5325 18.0197 23.5325 18.8792C23.5325 19.7386 22.8333 20.4377 21.9739 20.4377ZM26.3594 17.5989H24.9048C24.4101 16.4703 23.2828 15.6799 21.9739 15.6799C20.6648 15.6799 19.5378 16.4706 19.0428 17.5989H16.6816V11.4607H25.3904C25.9247 11.4607 26.3594 11.8954 26.3594 12.4294V17.5989Z" fill="#F95738"/>
<path d="M7.44678 10.8408H9.0874V8.96777H10.9604V7.32715H9.0874V5.4541H7.44678V7.32715H5.57373V8.96777H7.44678V10.8408Z" fill="#F95738"/>
</svg>
