<svg width="33" height="34" viewBox="0 0 33 34" fill="none" xmlns="http://www.w3.org/2000/svg">
<g clip-path="url(#clip0_303_350)">
<path d="M16.5 0C7.40212 0 0 7.52307 0 16.7705C0 26.0179 7.40212 33.541 16.5 33.541C25.5983 33.541 33 26.0179 33 16.7705C33 7.52307 25.5979 0 16.5 0ZM16.5 31.0928C8.73018 31.0928 2.40874 24.6677 2.40874 16.7705C2.40874 8.87329 8.73018 2.44823 16.5 2.44823C24.2698 2.44823 30.5913 8.87323 30.5913 16.7701C30.5913 24.6677 24.2698 31.0928 16.5 31.0928Z" fill="#19385E"/>
<path d="M22.1199 16.7705H16.9009V9.42577C16.9009 8.74965 16.3618 8.20166 15.6966 8.20166C15.0313 8.20166 14.4922 8.74965 14.4922 9.42577V17.9946C14.4922 18.6708 15.0313 19.2188 15.6966 19.2188H22.1199C22.7851 19.2188 23.3243 18.6708 23.3243 17.9946C23.3243 17.3185 22.7851 16.7705 22.1199 16.7705Z" fill="#19385E"/>
</g>
<defs>
<clipPath id="clip0_303_350">
<rect width="33" height="33.541" fill="white"/>
</clipPath>
</defs>
</svg>
