<svg width="20" height="20" viewBox="0 0 20 20" fill="none" xmlns="http://www.w3.org/2000/svg">
<path d="M9.99988 0.833268C8.40684 0.830911 6.84076 1.24436 5.45647 2.03274C4.07217 2.82112 2.91761 3.95714 2.10691 5.32847C1.29621 6.69981 0.857447 8.25899 0.834 9.85187C0.810552 11.4447 1.20323 13.0162 1.97322 14.4108L0.868217 18.0941C0.830938 18.2185 0.823261 18.3499 0.845799 18.4779C0.868337 18.6058 0.920464 18.7267 0.998022 18.8309C1.07558 18.935 1.17642 19.0197 1.29249 19.078C1.40857 19.1363 1.53666 19.1666 1.66655 19.1666C1.74781 19.1665 1.82864 19.1547 1.90655 19.1316L5.58988 18.0266C6.81509 18.7024 8.17873 19.0887 9.57632 19.156C10.9739 19.2233 12.3684 18.9697 13.6528 18.4147C14.9373 17.8598 16.0776 17.0181 16.9865 15.9543C17.8954 14.8905 18.5487 13.6327 18.8963 12.2774C19.244 10.9221 19.2767 9.50513 18.9921 8.13517C18.7074 6.76522 18.113 5.4786 17.2542 4.37392C16.3954 3.26924 15.2952 2.37581 14.0378 1.76208C12.7803 1.14836 11.3991 0.830642 9.99988 0.833268ZM9.99988 17.4999C8.63355 17.4981 7.29386 17.1217 6.12655 16.4116C5.99594 16.3331 5.84643 16.2916 5.69405 16.2916C5.61303 16.2913 5.53241 16.303 5.45488 16.3266L2.90988 17.0908L3.67322 14.5449C3.70635 14.4341 3.71606 14.3176 3.70171 14.2028C3.68736 14.0881 3.64928 13.9775 3.58988 13.8783C2.73426 12.4604 2.37241 10.7991 2.56085 9.15389C2.7493 7.50865 3.47743 5.97218 4.63148 4.78455C5.78554 3.59691 7.30049 2.82501 8.93965 2.58946C10.5788 2.35391 12.2498 2.66798 13.6916 3.48259C15.1334 4.29719 16.2647 5.56646 16.9088 7.09205C17.5529 8.61765 17.6735 10.3136 17.2517 11.915C16.83 13.5164 15.8897 14.933 14.5776 15.9434C13.2656 16.9538 11.6559 17.5012 9.99988 17.4999Z" fill="#19385E"/>
</svg>
