<svg width="22" height="26" viewBox="0 0 22 26" fill="none" xmlns="http://www.w3.org/2000/svg">
<path d="M21.1413 18.4163L19.75 17.375V3.6375C19.75 2.87169 19.4458 2.13724 18.9043 1.59573C18.3628 1.05422 17.6283 0.75 16.8625 0.75H6.0125C5.63331 0.75 5.25783 0.824687 4.9075 0.969798C4.55717 1.11491 4.23886 1.3276 3.97073 1.59573C3.7026 1.86386 3.48991 2.18217 3.3448 2.5325C3.19969 2.88283 3.125 3.25831 3.125 3.6375V8.625H1.375C1.14294 8.625 0.920376 8.71719 0.756282 8.88128C0.592187 9.04538 0.5 9.26794 0.5 9.5V22.6862C0.502306 23.3655 0.773156 24.0162 1.25345 24.4965C1.73375 24.9768 2.38451 25.2477 3.06375 25.25H18.9362C19.6155 25.2477 20.2662 24.9768 20.7465 24.4965C21.2268 24.0162 21.4977 23.3655 21.5 22.6862V19.125C21.5004 18.9869 21.468 18.8507 21.4057 18.7276C21.3433 18.6044 21.2527 18.4977 21.1413 18.4163ZM4.875 3.6375C4.875 3.33582 4.99484 3.04649 5.20817 2.83317C5.42149 2.61984 5.71082 2.5 6.0125 2.5H16.8625C17.1642 2.5 17.4535 2.61984 17.6668 2.83317C17.8802 3.04649 18 3.33582 18 3.6375V16.115L8.01625 8.79125C7.86612 8.68255 7.68535 8.62434 7.5 8.625H4.875V3.6375ZM19.75 22.6862C19.75 22.9021 19.6643 23.1091 19.5117 23.2617C19.3591 23.4143 19.1521 23.5 18.9362 23.5H3.06375C2.84793 23.5 2.64095 23.4143 2.48834 23.2617C2.33573 23.1091 2.25 22.9021 2.25 22.6862V10.375H7.21125L19.75 19.5713V22.6862ZM7.5 6C7.5 5.76794 7.59219 5.54538 7.75628 5.38128C7.92038 5.21719 8.14294 5.125 8.375 5.125H14.5C14.7321 5.125 14.9546 5.21719 15.1187 5.38128C15.2828 5.54538 15.375 5.76794 15.375 6C15.375 6.23206 15.2828 6.45462 15.1187 6.61872C14.9546 6.78281 14.7321 6.875 14.5 6.875H8.375C8.14294 6.875 7.92038 6.78281 7.75628 6.61872C7.59219 6.45462 7.5 6.23206 7.5 6ZM15.375 8.625C15.375 8.85706 15.2828 9.07962 15.1187 9.24372C14.9546 9.40781 14.7321 9.5 14.5 9.5H11.875C11.6429 9.5 11.4204 9.40781 11.2563 9.24372C11.0922 9.07962 11 8.85706 11 8.625C11 8.39294 11.0922 8.17038 11.2563 8.00628C11.4204 7.84219 11.6429 7.75 11.875 7.75H14.5C14.7321 7.75 14.9546 7.84219 15.1187 8.00628C15.2828 8.17038 15.375 8.39294 15.375 8.625Z" fill="#F95738"/>
</svg>
