<svg width="15" height="15" viewBox="0 0 15 15" fill="none" xmlns="http://www.w3.org/2000/svg">
<g clip-path="url(#clip0_612_11585)">
<path d="M0.46875 2.64424H7.60562C7.82071 3.62332 8.69505 4.35834 9.73778 4.35834C10.7805 4.35834 11.6549 3.62335 11.87 2.64424H14.5312C14.7901 2.64424 15 2.43436 15 2.1755C15 1.91663 14.7901 1.70675 14.5312 1.70675H11.8697C11.6542 0.728173 10.7787 -0.00732422 9.73778 -0.00732422C8.69634 -0.00732422 7.82121 0.728056 7.60579 1.70675H0.46875C0.209883 1.70675 0 1.91663 0 2.1755C0 2.43436 0.209883 2.64424 0.46875 2.64424ZM8.49249 2.17673C8.49249 2.17506 8.49252 2.17336 8.49252 2.17169C8.49457 1.48711 9.05317 0.930204 9.73778 0.930204C10.4214 0.930204 10.9801 1.48635 10.983 2.1706L10.9831 2.17749C10.982 2.86324 10.4238 3.42087 9.73778 3.42087C9.05206 3.42087 8.49401 2.8638 8.49246 2.17845L8.49249 2.17673ZM14.5312 12.3556H11.8697C11.6542 11.377 10.7787 10.6415 9.73778 10.6415C8.69634 10.6415 7.82121 11.3769 7.60579 12.3556H0.46875C0.209883 12.3556 0 12.5654 0 12.8243C0 13.0832 0.209883 13.2931 0.46875 13.2931H7.60562C7.82071 14.2722 8.69505 15.0072 9.73778 15.0072C10.7805 15.0072 11.6549 14.2722 11.87 13.2931H14.5312C14.7901 13.2931 15 13.0832 15 12.8243C15 12.5654 14.7901 12.3556 14.5312 12.3556ZM9.73778 14.0697C9.05206 14.0697 8.49401 13.5126 8.49246 12.8273L8.49249 12.8256C8.49249 12.8239 8.49252 12.8222 8.49252 12.8205C8.49457 12.136 9.05317 11.579 9.73778 11.579C10.4214 11.579 10.9801 12.1352 10.983 12.8194L10.9831 12.8263C10.9821 13.5121 10.4239 14.0697 9.73778 14.0697ZM14.5312 7.03118H7.39438C7.17929 6.05211 6.30495 5.31711 5.26222 5.31711C4.21948 5.31711 3.34515 6.05211 3.13005 7.03118H0.46875C0.209883 7.03118 0 7.24107 0 7.49993C0 7.75883 0.209883 7.96868 0.46875 7.96868H3.13028C3.34582 8.94723 4.22133 9.68275 5.26222 9.68275C6.30366 9.68275 7.17879 8.94734 7.39421 7.96868H14.5312C14.7901 7.96868 15 7.75883 15 7.49993C15 7.24107 14.7901 7.03118 14.5312 7.03118ZM6.50751 7.4987C6.50751 7.5004 6.50748 7.50207 6.50748 7.50374C6.50543 8.18832 5.94683 8.74522 5.26222 8.74522C4.57857 8.74522 4.01994 8.18908 4.01698 7.50485L4.01689 7.498C4.01792 6.81216 4.57617 6.25461 5.26222 6.25461C5.94794 6.25461 6.50599 6.81166 6.50754 7.49703L6.50751 7.4987Z" fill="#19385E"/>
</g>
<defs>
<clipPath id="clip0_612_11585">
<rect width="15" height="15" fill="white"/>
</clipPath>
</defs>
</svg>
