<svg width="9" height="15" viewBox="0 0 9 15" fill="none" xmlns="http://www.w3.org/2000/svg">
<path d="M8.7266 5.1445C8.68562 5.05649 8.59735 5.00001 8.50011 5.00001H5.53761L8.46135 0.38376C8.5101 0.306768 8.51309 0.209268 8.46911 0.129521C8.42511 0.0495117 8.34109 0 8.25009 0H4.2501C4.15535 0 4.06884 0.0534961 4.02636 0.138252L0.276362 7.63825C0.237602 7.71551 0.24185 7.8075 0.287348 7.88124C0.33311 7.95498 0.413354 7.99998 0.500102 7.99998H3.07084L0.269594 14.653C0.22184 14.7667 0.26435 14.8987 0.369584 14.9632C0.410072 14.988 0.455072 15 0.499838 15C0.571586 15 0.642338 14.9692 0.691352 14.9112L8.69136 5.41122C8.75408 5.33675 8.76759 5.23274 8.7266 5.1445Z" fill="#F95738"/>
</svg>
