<svg width="16" height="20" viewBox="0 0 16 20" fill="none" xmlns="http://www.w3.org/2000/svg">
<path d="M8 0C3.6 0 0 3.6 0 8C0 12.2 6.6 18.6 7.3 19.3L8 20L8.7 19.3C9.4 18.6 16 12.2 16 8C16 3.6 12.4 0 8 0ZM8 17.2C5.8 15 2 10.5 2 8C2 4.7 4.7 2 8 2C11.3 2 14 4.7 14 8C14 10.5 10.2 15 8 17.2Z" fill="#19385E"/>
<path d="M8.00001 4.00009C5.8 4.00009 4 5.80009 4 8.0001C4 10.2001 5.8 12.0001 8.00001 12.0001C10.2 12.0001 12 10.2001 12 8.0001C12 5.80009 10.2 4.00009 8.00001 4.00009ZM8.00001 10.0001C6.90001 10.0001 6 9.1001 6 8.0001C6 6.9001 6.90001 6.0001 8.00001 6.0001C9.10001 6.0001 10 6.9001 10 8.0001C10 9.1001 9.10001 10.0001 8.00001 10.0001Z" fill="#19385E"/>
</svg>
