<svg width="23" height="23" viewBox="0 0 23 23" fill="none" xmlns="http://www.w3.org/2000/svg">
<path d="M21.1302 16.5428C21.7055 16.5428 22.1719 16.0764 22.1719 15.5011C22.1719 14.9258 21.7055 14.4595 21.1302 14.4595C20.5549 14.4595 20.0886 14.9258 20.0886 15.5011C20.0886 16.0764 20.5549 16.5428 21.1302 16.5428Z" fill="#19385E"/>
<path d="M18.8583 19.898C19.4336 19.898 19.9 19.4317 19.9 18.8564C19.9 18.2811 19.4336 17.8147 18.8583 17.8147C18.283 17.8147 17.8167 18.2811 17.8167 18.8564C17.8167 19.4317 18.283 19.898 18.8583 19.898Z" fill="#19385E"/>
<path d="M21.9135 12.546C22.4888 12.546 22.9552 12.0796 22.9552 11.5043C22.9552 10.929 22.4888 10.4626 21.9135 10.4626C21.3383 10.4626 20.8719 10.929 20.8719 11.5043C20.8719 12.0796 21.3383 12.546 21.9135 12.546Z" fill="#19385E"/>
<path d="M15.4844 22.1741C16.0597 22.1741 16.5261 21.7078 16.5261 21.1325C16.5261 20.5572 16.0597 20.0908 15.4844 20.0908C14.9091 20.0908 14.4427 20.5572 14.4427 21.1325C14.4427 21.7078 14.9091 22.1741 15.4844 22.1741Z" fill="#19385E"/>
<path d="M11.5 20.8751C9.99972 20.8769 8.5209 20.5186 7.1878 19.8303C5.8547 19.142 4.70626 18.1439 3.83895 16.9197C2.97165 15.6955 2.41082 14.281 2.20358 12.7951C1.99634 11.3092 2.14875 9.79522 2.64799 8.38042C3.14724 6.96563 3.97874 5.69132 5.07264 4.66454C6.16655 3.63777 7.4909 2.88853 8.93443 2.47976C10.378 2.071 11.8985 2.01465 13.3684 2.31545C14.8382 2.61625 16.2144 3.26542 17.3813 4.20842H15.6667C15.3904 4.20842 15.1255 4.31816 14.9301 4.51351C14.7348 4.70886 14.625 4.97382 14.625 5.25008C14.625 5.52635 14.7348 5.7913 14.9301 5.98665C15.1255 6.182 15.3904 6.29175 15.6667 6.29175H19.8333C20.1096 6.29175 20.3746 6.182 20.5699 5.98665C20.7653 5.7913 20.875 5.52635 20.875 5.25008V1.08342C20.875 0.807148 20.7653 0.542196 20.5699 0.346845C20.3746 0.151495 20.1096 0.041748 19.8333 0.041748C19.5571 0.041748 19.2921 0.151495 19.0968 0.346845C18.9014 0.542196 18.7917 0.807148 18.7917 1.08342V2.67821C17.3752 1.50711 15.6976 0.694114 13.9007 0.307894C12.1038 -0.0783258 10.2403 -0.0264262 8.46772 0.459209C6.6951 0.944844 5.06539 1.84995 3.71625 3.09808C2.3671 4.3462 1.33815 5.90069 0.7163 7.63023C0.0944501 9.35977 -0.10203 11.2136 0.143455 13.035C0.38894 14.8565 1.06918 16.5921 2.12672 18.0954C3.18425 19.5986 4.58803 20.8252 6.21946 21.6716C7.8509 22.518 9.66207 22.9594 11.5 22.9584C11.7763 22.9584 12.0412 22.8487 12.2366 22.6533C12.4319 22.458 12.5417 22.193 12.5417 21.9168C12.5417 21.6405 12.4319 21.3755 12.2366 21.1802C12.0412 20.9848 11.7763 20.8751 11.5 20.8751Z" fill="#19385E"/>
<path d="M15.3615 15.3616C15.5568 15.1663 15.6665 14.9014 15.6665 14.6252C15.6665 14.349 15.5568 14.0841 15.3615 13.8887L12.5417 11.0689V5.25016C12.5417 4.9739 12.432 4.70894 12.2366 4.51359C12.0413 4.31824 11.7763 4.2085 11.5 4.2085C11.2238 4.2085 10.9588 4.31824 10.7635 4.51359C10.5681 4.70894 10.4584 4.9739 10.4584 5.25016V11.5002C10.4584 11.7764 10.5682 12.0413 10.7636 12.2366L13.8886 15.3616C14.0839 15.5569 14.3488 15.6666 14.625 15.6666C14.9013 15.6666 15.1662 15.5569 15.3615 15.3616Z" fill="#19385E"/>
</svg>
