<svg width="12" height="16" viewBox="0 0 12 16" fill="none" xmlns="http://www.w3.org/2000/svg">
<path d="M11.1381 2.86189L8.47144 0.195203C8.47132 0.195078 8.47119 0.195016 8.4711 0.194891C8.45566 0.179484 8.43947 0.164891 8.4226 0.151047C8.41488 0.144703 8.40676 0.139203 8.39882 0.133266C8.38935 0.126172 8.38007 0.118828 8.37019 0.112234C8.36069 0.105891 8.35085 0.100391 8.3411 0.0945782C8.33216 0.0892344 8.32344 0.0836406 8.31426 0.0787032C8.30432 0.0733906 8.29413 0.0688906 8.28397 0.0641094C8.27438 0.0595781 8.26494 0.0547969 8.25513 0.0507031C8.24529 0.0466406 8.23522 0.0433281 8.22522 0.0397656C8.21469 0.0359844 8.20432 0.0319531 8.19357 0.0287031C8.18357 0.0256719 8.17338 0.0234531 8.16329 0.0209219C8.15232 0.0181406 8.14147 0.0150781 8.13032 0.0128594C8.1186 0.0105469 8.10679 0.00914063 8.09501 0.00745313C8.08529 0.00607813 8.07572 0.00420313 8.06585 0.00323438C8.0221 -0.00107813 7.97801 -0.00107813 7.93426 0.00323438C7.92441 0.00420313 7.91485 0.00604688 7.9051 0.00745313C7.89332 0.00914063 7.88147 0.0105156 7.86979 0.0128594C7.8586 0.0150781 7.84779 0.0181406 7.83682 0.0209219C7.82669 0.0234531 7.81654 0.0256719 7.80654 0.0287031C7.79579 0.0319531 7.78538 0.0359844 7.77488 0.0397656C7.76488 0.0433594 7.75482 0.0466406 7.74497 0.0507031C7.73513 0.0547656 7.72572 0.0595781 7.71613 0.0641094C7.70601 0.0688906 7.69579 0.0733906 7.68585 0.0787032C7.67666 0.0836406 7.66794 0.0892344 7.65901 0.0945782C7.64926 0.100391 7.63941 0.105891 7.62991 0.112234C7.62004 0.118828 7.61079 0.126172 7.60129 0.133266C7.59335 0.139203 7.58522 0.144703 7.57751 0.151047C7.56063 0.164891 7.54441 0.179484 7.52901 0.194891C7.52888 0.195016 7.52876 0.195078 7.52866 0.195203L4.86201 2.86186C4.60166 3.1222 4.60166 3.54433 4.86201 3.80467C5.12235 4.06502 5.54447 4.06502 5.80482 3.80467L7.33341 2.27608V9.99996C7.33341 10.3681 7.63188 10.6666 8.00007 10.6666C8.36826 10.6666 8.66672 10.3681 8.66672 9.99996V2.27611L10.1953 3.8047C10.4557 4.06505 10.8778 4.06505 11.1381 3.8047C11.3984 3.54433 11.3984 3.12224 11.1381 2.86189Z" fill="#4289EE"/>
<path d="M6.19532 12.1952L4.66673 13.7237V5.99991C4.66673 5.63172 4.36826 5.33325 4.00007 5.33325C3.63188 5.33325 3.33341 5.63172 3.33341 5.99991V13.7237L1.80482 12.1952C1.54447 11.9348 1.12235 11.9348 0.862006 12.1952C0.601662 12.4555 0.601662 12.8776 0.862006 13.138L3.52866 15.8046C3.52879 15.8047 3.52891 15.8048 3.52904 15.805C3.54444 15.8203 3.56066 15.8349 3.57751 15.8488C3.58523 15.8551 3.59338 15.8606 3.60132 15.8666C3.61079 15.8737 3.62007 15.881 3.62991 15.8876C3.63941 15.894 3.64926 15.8995 3.65901 15.9053C3.66794 15.9106 3.67666 15.9162 3.68585 15.9211C3.69579 15.9264 3.70601 15.9309 3.71616 15.9357C3.72573 15.9402 3.73516 15.945 3.74498 15.9491C3.75482 15.9532 3.76488 15.9565 3.77488 15.96C3.78541 15.9638 3.79579 15.9678 3.80654 15.9711C3.81654 15.9741 3.82669 15.9763 3.83682 15.9789C3.84779 15.9817 3.85863 15.9847 3.86982 15.9869C3.88154 15.9892 3.89335 15.9906 3.90513 15.9923C3.91485 15.9937 3.92445 15.9956 3.93429 15.9965C3.97804 16.0008 4.02213 16.0008 4.06588 15.9965C4.07573 15.9956 4.08529 15.9937 4.09504 15.9923C4.10682 15.9906 4.11866 15.9893 4.13035 15.9869C4.14154 15.9847 4.15235 15.9816 4.16332 15.9788C4.17344 15.9763 4.1836 15.9741 4.1936 15.9711C4.20435 15.9678 4.21476 15.9638 4.22526 15.96C4.23526 15.9564 4.24532 15.9531 4.25516 15.9491C4.26498 15.945 4.27438 15.9402 4.28395 15.9357C4.2941 15.9309 4.30435 15.9264 4.31429 15.9211C4.32344 15.9162 4.33216 15.9106 4.34107 15.9053C4.35082 15.8994 4.3607 15.8939 4.37019 15.8876C4.38004 15.881 4.38929 15.8737 4.39873 15.8666C4.4067 15.8606 4.41485 15.8551 4.4226 15.8487C4.43932 15.835 4.45541 15.8205 4.47073 15.8053C4.47098 15.805 4.47123 15.8048 4.47145 15.8046L7.1381 13.1379C7.39845 12.8776 7.39845 12.4555 7.1381 12.1951C6.87776 11.9348 6.4557 11.9348 6.19532 12.1952Z" fill="#4289EE"/>
</svg>
