<svg width="28" height="28" viewBox="0 0 28 28" fill="none" xmlns="http://www.w3.org/2000/svg">
<g clip-path="url(#clip0_559_269)">
<path d="M26.635 1.36503C26.2028 0.930462 25.6887 0.586026 25.1225 0.351707C24.5562 0.117388 23.949 -0.00214949 23.3362 2.9255e-05H2.79995C2.0032 0.0798886 1.2678 0.463503 0.74642 1.07124C0.225037 1.67898 -0.0422858 2.46416 -5.59497e-05 3.26378V7.46378C-5.59497e-05 8.4547 0.393584 9.40503 1.09427 10.1057C1.79495 10.8064 2.74528 11.2 3.7362 11.2H4.6637V23.3363C4.66369 23.9495 4.78462 24.5567 5.01954 25.1231C5.25446 25.6895 5.59877 26.204 6.03277 26.6372C6.46677 27.0703 6.98193 27.4137 7.54877 27.6476C8.11561 27.8814 8.72301 28.0012 9.3362 28H23.3362C24.5731 28 25.7594 27.5087 26.634 26.6341C27.5086 25.7594 28 24.5732 28 23.3363V4.66378C28.0021 4.05095 27.8826 3.44378 27.6483 2.87751C27.414 2.31124 27.0695 1.79714 26.635 1.36503ZM3.7362 9.33628C3.23958 9.33628 2.7633 9.139 2.41214 8.78784C2.06098 8.43668 1.8637 7.9604 1.8637 7.46378V3.26378C1.8637 3.07993 1.89991 2.89788 1.97026 2.72802C2.04062 2.55817 2.14374 2.40383 2.27375 2.27383C2.40375 2.14383 2.55808 2.04071 2.72794 1.97035C2.89779 1.89999 3.07984 1.86378 3.2637 1.86378C3.44755 1.86378 3.6296 1.89999 3.79945 1.97035C3.96931 2.04071 4.12364 2.14383 4.25365 2.27383C4.38365 2.40383 4.48677 2.55817 4.55713 2.72802C4.62748 2.89788 4.6637 3.07993 4.6637 3.26378V9.32753L3.7362 9.33628ZM26.1362 23.3363C26.1362 24.0789 25.8412 24.7911 25.3161 25.3162C24.791 25.8413 24.0788 26.1363 23.3362 26.1363H9.3362C8.59359 26.1363 7.8814 25.8413 7.3563 25.3162C6.8312 24.7911 6.5362 24.0789 6.5362 23.3363V3.26378C6.53481 2.77872 6.42416 2.3002 6.21245 1.86378H23.3362C24.0788 1.86378 24.791 2.15878 25.3161 2.68388C25.8412 3.20898 26.1362 3.92118 26.1362 4.66378V23.3363Z" fill="#F95738"/>
<path d="M13.0636 7.46383H19.5999C19.7298 7.47644 19.861 7.46172 19.9849 7.42063C20.1089 7.37953 20.2228 7.31297 20.3195 7.22521C20.4162 7.13745 20.4935 7.03044 20.5463 6.91105C20.5992 6.79166 20.6265 6.66253 20.6265 6.53195C20.6265 6.40138 20.5992 6.27225 20.5463 6.15286C20.4935 6.03347 20.4162 5.92646 20.3195 5.8387C20.2228 5.75094 20.1089 5.68437 19.9849 5.64328C19.861 5.60219 19.7298 5.58747 19.5999 5.60008H13.0636C12.832 5.62254 12.6171 5.73043 12.4608 5.9027C12.3044 6.07497 12.2178 6.2993 12.2178 6.53195C12.2178 6.76461 12.3044 6.98893 12.4608 7.16121C12.6171 7.33348 12.832 7.44136 13.0636 7.46383Z" fill="#F95738"/>
<path d="M22.4 11.1999H11.2C11.07 11.1873 10.9389 11.202 10.8149 11.2431C10.691 11.2842 10.577 11.3508 10.4803 11.4386C10.3837 11.5263 10.3064 11.6333 10.2535 11.7527C10.2007 11.8721 10.1733 12.0012 10.1733 12.1318C10.1733 12.2624 10.2007 12.3915 10.2535 12.5109C10.3064 12.6303 10.3837 12.7373 10.4803 12.8251C10.577 12.9128 10.691 12.9794 10.8149 13.0205C10.9389 13.0616 11.07 13.0763 11.2 13.0637H22.4C22.53 13.0763 22.6611 13.0616 22.7851 13.0205C22.909 12.9794 23.023 12.9128 23.1197 12.8251C23.2163 12.7373 23.2936 12.6303 23.3465 12.5109C23.3993 12.3915 23.4267 12.2624 23.4267 12.1318C23.4267 12.0012 23.3993 11.8721 23.3465 11.7527C23.2936 11.6333 23.2163 11.5263 23.1197 11.4386C23.023 11.3508 22.909 11.2842 22.7851 11.2431C22.6611 11.202 22.53 11.1873 22.4 11.1999Z" fill="#F95738"/>
<path d="M22.3999 15.8637H11.1998C10.9683 15.8862 10.7534 15.9941 10.597 16.1664C10.4406 16.3386 10.354 16.563 10.354 16.7956C10.354 17.0283 10.4406 17.2526 10.597 17.4249C10.7534 17.5972 10.9683 17.705 11.1998 17.7275H22.3999C22.5298 17.7401 22.661 17.7254 22.7849 17.6843C22.9089 17.6432 23.0228 17.5766 23.1195 17.4889C23.2162 17.4011 23.2935 17.2941 23.3463 17.1747C23.3992 17.0553 23.4265 16.9262 23.4265 16.7956C23.4265 16.6651 23.3992 16.5359 23.3463 16.4165C23.2935 16.2971 23.2162 16.1901 23.1195 16.1024C23.0228 16.0146 22.9089 15.948 22.7849 15.907C22.661 15.8659 22.5298 15.8511 22.3999 15.8637Z" fill="#F95738"/>
<path d="M17.3074 20.5364H11.1824C11.0525 20.5237 10.9213 20.5385 10.7974 20.5796C10.6734 20.6207 10.5594 20.6872 10.4628 20.775C10.3661 20.8627 10.2888 20.9697 10.2359 21.0891C10.1831 21.2085 10.1558 21.3377 10.1558 21.4682C10.1558 21.5988 10.1831 21.7279 10.2359 21.8473C10.2888 21.9667 10.3661 22.0737 10.4628 22.1615C10.5594 22.2492 10.6734 22.3158 10.7974 22.3569C10.9213 22.398 11.0525 22.4127 11.1824 22.4001H17.3074C17.4374 22.4127 17.5685 22.398 17.6925 22.3569C17.8164 22.3158 17.9304 22.2492 18.0271 22.1615C18.1238 22.0737 18.201 21.9667 18.2539 21.8473C18.3068 21.7279 18.3341 21.5988 18.3341 21.4682C18.3341 21.3377 18.3068 21.2085 18.2539 21.0891C18.201 20.9697 18.1238 20.8627 18.0271 20.775C17.9304 20.6872 17.8164 20.6207 17.6925 20.5796C17.5685 20.5385 17.4374 20.5237 17.3074 20.5364Z" fill="#F95738"/>
</g>
<defs>
<clipPath id="clip0_559_269">
<rect width="28" height="28" fill="white"/>
</clipPath>
</defs>
</svg>
