<svg width="22" height="22" viewBox="0 0 22 22" fill="none" xmlns="http://www.w3.org/2000/svg">
<g opacity="0.5">
<path fill-rule="evenodd" clip-rule="evenodd" d="M16.4158 5.00846L17.0659 4.20003C17.9566 3.09501 17.7761 1.48053 16.6614 0.595559L16.6205 0.562074C15.5082 -0.322898 13.8831 -0.143512 12.9923 0.963899L12.3447 1.76994L16.4158 5.00846Z" fill="#19385E"/>
<path fill-rule="evenodd" clip-rule="evenodd" d="M12.4594 11.8038C12.481 11.9999 12.5797 12.1865 12.7458 12.3204C13.0805 12.5859 13.5692 12.5333 13.8365 12.2009L18.3024 6.65184C18.5745 6.3146 18.5143 5.81949 18.1652 5.55639C17.8281 5.30286 17.3442 5.37462 17.0794 5.70229L16.6436 6.24284L15.8973 5.64967L15.8997 5.64728L11.831 2.40637L1.4209 15.3341L5.49201 18.5727L14.9319 6.85276L15.6782 7.44593L12.6255 11.237C12.4907 11.402 12.4377 11.6077 12.4594 11.8038Z" fill="#19385E"/>
<path fill-rule="evenodd" clip-rule="evenodd" d="M4.81599 19.1706L0.98082 16.1187C0.918224 16.3315 0.886926 16.5181 0.886926 16.5181L0.00818285 20.699C-0.0544126 21.0004 0.25375 21.2467 0.535429 21.1175L4.45005 19.3476C4.44764 19.3476 4.62099 19.2758 4.81599 19.1706Z" fill="#19385E"/>
<path fill-rule="evenodd" clip-rule="evenodd" d="M21.4429 19.919C21.4092 19.919 21.3779 19.9215 21.3442 19.9262L15.4289 20.6868C15.1256 20.7251 14.9137 20.395 15.0774 20.1367C15.1665 20.0004 15.2531 19.8617 15.3398 19.7229C15.5685 19.3546 15.2628 18.8643 14.8391 18.8643C14.8102 18.8643 14.7813 18.8667 14.75 18.8715L6.99777 20.0291L6.07088 20.1678L3.54299 20.5457C3.25649 20.5888 3.06389 20.8304 3.08797 21.1198C3.0976 21.2489 3.15056 21.3709 3.23482 21.4618C3.33353 21.5694 3.47076 21.6292 3.62003 21.6292C3.64892 21.6292 3.67781 21.6268 3.7091 21.622L12.9492 20.242C13.2646 20.1941 13.4812 20.5481 13.2959 20.8065C13.2357 20.8878 13.1755 20.9715 13.1153 21.0528C12.9492 21.2776 12.9877 21.6532 13.1803 21.8469C13.279 21.9473 13.4042 22 13.5366 22C13.5511 22 13.5679 22 13.5823 21.9975H13.5848H13.5872L21.5633 20.9882H21.5657H21.5681C21.7053 20.9667 21.8257 20.8878 21.9052 20.7658C21.9918 20.6318 22.0231 20.4668 21.9846 20.3185C21.922 20.0769 21.7101 19.919 21.4429 19.919Z" fill="#19385E"/>
</g>
</svg>
