<svg width="20" height="30" viewBox="0 0 20 30" fill="none" xmlns="http://www.w3.org/2000/svg">
<path d="M15.8438 0.125H4.15625C3.31087 0.125 2.50012 0.460825 1.90235 1.0586C1.30457 1.65637 0.96875 2.46712 0.96875 3.3125V26.6875C0.96875 27.5329 1.30457 28.3436 1.90235 28.9414C2.50012 29.5392 3.31087 29.875 4.15625 29.875H15.8438C16.6891 29.875 17.4999 29.5392 18.0977 28.9414C18.6954 28.3436 19.0312 27.5329 19.0312 26.6875V3.3125C19.0312 2.46712 18.6954 1.65637 18.0977 1.0586C17.4999 0.460825 16.6891 0.125 15.8438 0.125ZM16.9062 26.6875C16.9062 26.9693 16.7943 27.2395 16.5951 27.4388C16.3958 27.6381 16.1255 27.75 15.8438 27.75H4.15625C3.87446 27.75 3.60421 27.6381 3.40495 27.4388C3.20569 27.2395 3.09375 26.9693 3.09375 26.6875V3.3125C3.09375 3.03071 3.20569 2.76046 3.40495 2.5612C3.60421 2.36194 3.87446 2.25 4.15625 2.25H5.21875C5.21875 2.53179 5.33069 2.80204 5.52995 3.0013C5.72921 3.20056 5.99946 3.3125 6.28125 3.3125H13.7188C14.0005 3.3125 14.2708 3.20056 14.4701 3.0013C14.6693 2.80204 14.7812 2.53179 14.7812 2.25H15.8438C16.1255 2.25 16.3958 2.36194 16.5951 2.5612C16.7943 2.76046 16.9062 3.03071 16.9062 3.3125V26.6875Z" fill="#19385E"/>
</svg>
