<svg width="28" height="28" viewBox="0 0 28 28" fill="none" xmlns="http://www.w3.org/2000/svg">
<path d="M24.7188 0.0546875C22.9095 0.0546875 21.4375 1.52666 21.4375 3.33594C21.4375 4.7618 22.352 5.97751 23.625 6.42906V18.8125C23.625 22.6723 20.4848 25.8125 16.625 25.8125C12.9211 25.8125 9.88039 22.9207 9.64075 19.2764L14.7205 12.2918C14.7546 12.2449 14.7832 12.1957 14.8088 12.1457C16.3336 10.3423 17.1719 7.98405 17.1719 5.48548C17.1719 4.0565 16.9017 2.6839 16.3696 1.40148C16.3519 1.35559 16.3328 1.31042 16.3121 1.26607C16.3027 1.2442 16.2939 1.22216 16.2842 1.20034L16.2809 1.20181C15.9203 0.489016 15.1815 0 14.3281 0C13.12 0 12.1406 0.979398 12.1406 2.1875C12.1406 3.3956 13.12 4.375 14.3281 4.375C14.5275 4.375 14.7205 4.34782 14.9041 4.29784C14.9571 4.68699 14.9844 5.08315 14.9844 5.48548C14.9844 9.60745 12.114 12.9609 8.58594 12.9609C5.05783 12.9609 2.1875 9.60745 2.1875 5.48548C2.1875 5.08315 2.21479 4.68694 2.26778 4.29784C2.45137 4.34782 2.64436 4.375 2.84375 4.375C4.05185 4.375 5.03125 3.3956 5.03125 2.1875C5.03125 0.979398 4.05185 0 2.84375 0C1.99035 0 1.25158 0.489016 0.891078 1.20187L0.887688 1.20039C0.878117 1.22221 0.869258 1.24425 0.859797 1.26612C0.83918 1.31048 0.820039 1.35565 0.802375 1.40153C0.270156 2.68384 0 4.0565 0 5.48548C0 7.90907 0.788867 10.2006 2.22775 11.9818C2.24602 12.013 2.26587 12.0436 2.28758 12.0734L7.44466 19.1578C7.62694 24.0644 11.6746 28 16.625 28C21.691 28 25.8125 23.8785 25.8125 18.8125V6.42906C27.0855 5.97751 28 4.7618 28 3.33594C28 1.52666 26.528 0.0546875 24.7188 0.0546875ZM7.13202 15.0114C7.60747 15.1018 8.09331 15.1484 8.58594 15.1484C9.07769 15.1484 9.56266 15.102 10.0373 15.0119L8.5855 17.0081L7.13202 15.0114ZM24.7188 4.42969C24.1157 4.42969 23.625 3.93903 23.625 3.33594C23.625 2.73284 24.1157 2.24219 24.7188 2.24219C25.3218 2.24219 25.8125 2.73284 25.8125 3.33594C25.8125 3.93903 25.3218 4.42969 24.7188 4.42969Z" fill="#F95738"/>
</svg>
