<svg width="18" height="18" viewBox="0 0 18 18" fill="none" xmlns="http://www.w3.org/2000/svg">
<path d="M15.4078 6.59168L4.6661 1.15002C4.25457 0.91626 3.78939 0.793365 3.3161 0.793365C2.84281 0.793365 2.37763 0.91626 1.9661 1.15002C1.56378 1.42428 1.24097 1.79986 1.03027 2.23882C0.819566 2.67778 0.728442 3.16457 0.7661 3.65002V14.4667C0.730149 14.9519 0.822032 15.4381 1.03259 15.8768C1.24314 16.3154 1.56501 16.6912 1.9661 16.9667C2.33802 17.1908 2.76526 17.3063 3.19943 17.3C3.7109 17.2913 4.21321 17.1628 4.6661 16.925L15.4078 11.5C16.9994 10.6667 17.2328 9.63335 17.2328 9.06668C17.2328 8.50002 16.9994 7.40002 15.4078 6.59168ZM14.6494 9.97502L3.9161 15.4167C3.75781 15.5215 3.57604 15.5854 3.38701 15.6029C3.19798 15.6203 3.00757 15.5907 2.83277 15.5167C2.68489 15.3881 2.57102 15.2249 2.50125 15.0418C2.43147 14.8586 2.40795 14.6611 2.43277 14.4667V3.58335C2.40795 3.38894 2.43147 3.1914 2.50125 3.00825C2.57102 2.82509 2.68489 2.66198 2.83277 2.53335C2.93486 2.47636 3.04922 2.44491 3.1661 2.44168C3.41729 2.45172 3.66268 2.5202 3.88277 2.64168L14.6494 8.08335C15.2161 8.36668 15.5661 8.73335 15.5661 9.02502C15.5661 9.31668 15.2161 9.68335 14.6494 9.97502Z" fill="#19385E"/>
</svg>
