<svg width="25" height="25" viewBox="0 0 25 25" fill="none" xmlns="http://www.w3.org/2000/svg">
<path d="M22.6982 -0.0488281C22.6712 -0.0488281 22.6443 -0.0476837 22.6172 -0.0453949C22.4575 -0.0322342 18.8877 0.295449 17.5463 2.8986L12.702 2.40632C11.528 2.28711 10.3775 2.69738 9.54571 3.53051L1.18788 11.8607C-0.331331 13.3826 -0.330759 15.8579 1.18902 17.379L7.59944 23.7948C8.36944 24.5654 9.37958 24.9512 10.3863 24.9512C11.3791 24.951 12.3686 24.5758 13.121 23.8242C13.5023 23.4431 13.5027 22.8251 13.1216 22.4438C12.7407 22.0623 12.1225 22.0621 11.7413 22.443C10.9873 23.1965 9.74865 23.1837 8.98056 22.4148L2.56994 15.9991C1.81005 15.2386 1.80986 14.0009 2.56766 13.2418L10.9257 4.91143C11.3424 4.4941 11.9179 4.28887 12.5046 4.34838L19.9318 5.10331L20.0285 6.05241C18.6756 6.55671 17.3882 6.6372 17.3588 6.63892C16.8211 6.66791 16.4084 7.12701 16.4366 7.66488C16.4641 8.18578 16.8949 8.58976 17.4105 8.58976C17.4278 8.58976 17.4452 8.58938 17.4626 8.58842C17.5251 8.58518 18.7742 8.51366 20.2317 8.04731L20.686 12.5092C20.7457 13.0947 20.5416 13.6692 20.1258 14.086L15.3639 18.7781C14.9799 19.1563 14.9754 19.7745 15.3536 20.1584C15.732 20.5424 16.35 20.5469 16.7339 20.1685L21.4987 15.4738C21.5002 15.4722 21.5018 15.4707 21.5035 15.469C22.3378 14.6355 22.7478 13.4846 22.6282 12.3114L22.11 7.2241C22.7665 6.83976 23.32 6.38696 23.7625 5.87083C24.6075 4.88454 25.0357 3.69206 25.0347 2.32678V2.28787C25.0347 0.999452 23.9867 -0.0488281 22.6982 -0.0488281V-0.0488281ZM23.0826 2.32735C23.0833 3.41836 22.6883 4.30356 21.8838 5.00356L21.7932 4.11378C21.7463 3.65296 21.3818 3.28847 20.9208 3.24154L19.7886 3.12653C20.7876 2.17286 22.4385 1.93959 22.7333 1.90487C22.9288 1.9228 23.0826 2.08779 23.0826 2.28787V2.32735ZM15.1718 14.2521C14.7907 14.6334 14.1728 14.6334 13.7915 14.2521C13.4102 13.8708 13.4102 13.2529 13.7915 12.8718C13.8956 12.7676 13.9145 12.6469 13.912 12.5639C13.9082 12.4306 13.85 12.3011 13.7484 12.1996L13.1504 11.6015C12.9953 11.4464 12.7958 11.3598 12.5887 11.3575C12.4434 11.3562 12.236 11.3938 12.0474 11.5826L11.8933 11.7367C11.5751 12.0547 11.5635 12.5801 11.8675 12.8844L12.5 13.5166C13.0182 14.0349 13.3076 14.7187 13.3152 15.4423C13.3226 16.1761 13.0398 16.8675 12.5181 17.3889L12.4462 17.4609C11.9186 17.9886 11.2391 18.2516 10.5551 18.2516C9.9741 18.2518 9.39026 18.0613 8.89301 17.6827L8.48427 18.0771C8.29486 18.2598 8.05053 18.3506 7.80658 18.3506C7.551 18.3506 7.2956 18.2509 7.1041 18.0523C6.72969 17.6644 6.74094 17.0464 7.1289 16.6722L7.49473 16.3191C7.08312 15.8732 6.85062 15.3055 6.83784 14.7091C6.8241 14.0591 7.07187 13.4455 7.53574 12.9816C7.91702 12.6005 8.535 12.6005 8.91628 12.9816C9.29737 13.3629 9.29737 13.9809 8.91628 14.3622C8.82969 14.4486 8.78715 14.5514 8.78963 14.6675C8.7923 14.7923 8.848 14.9153 8.9468 15.0139L9.97486 16.042C10.2968 16.3639 10.7658 16.3803 11.0659 16.0805L11.1378 16.0084C11.2852 15.8612 11.3651 15.6674 11.363 15.4625C11.3607 15.2527 11.2743 15.0519 11.1197 14.8972L10.487 14.2647C9.41658 13.1941 9.42821 11.4409 10.5127 10.3562L10.667 10.202C11.1815 9.68763 11.8597 9.40534 12.5797 9.40534H12.6099C13.1077 9.41087 13.587 9.55087 14.0068 9.80779L14.4261 9.37483C14.8012 8.98744 15.419 8.97752 15.8064 9.35251C16.1936 9.7275 16.2035 10.3455 15.8285 10.7329L15.4146 11.1603C15.6922 11.5561 15.8491 12.0213 15.8634 12.5067C15.8827 13.167 15.6372 13.7869 15.1718 14.2521Z" fill="#19385E"/>
</svg>
