<svg width="12" height="12" viewBox="0 0 12 12" fill="none" xmlns="http://www.w3.org/2000/svg">
<g clip-path="url(#clip0_572_2831)">
<path d="M9.1875 7.93726L12 7.93726L12 0.514133L9.1875 0.514133L9.1875 7.93726Z" fill="white"/>
<path d="M0.255657 4.83479C0.255657 5.10257 0.344509 5.34995 0.494227 5.54912C0.195118 5.7658 4.89389e-07 6.11762 4.5471e-07 6.5143C3.97283e-07 7.17118 0.534445 7.70561 1.19133 7.70561L3.89941 7.70561L3.52254 9.0074L3.52254 9.63114C3.52254 10.7805 4.45762 11.7156 5.60698 11.7156C5.88567 11.7156 6.11238 11.4888 6.11238 11.2102L6.11238 9.82736C6.30033 9.52656 7.34405 8.35539 8.48438 7.12834L8.48438 0.976233L7.5113 0.611334C6.93293 0.394443 6.32646 0.284474 5.70874 0.284474L1.9583 0.284474C1.30141 0.284474 0.766994 0.818919 0.766993 1.4758C0.766993 1.74346 0.855728 1.99079 1.00533 2.18992C0.706267 2.40658 0.511336 2.75863 0.511336 3.15531C0.511336 3.42308 0.600188 3.67047 0.749883 3.86964C0.450774 4.08625 0.255657 4.43807 0.255657 4.83479Z" fill="white"/>
</g>
<defs>
<clipPath id="clip0_572_2831">
<rect width="12" height="12" fill="white" transform="translate(12 12) rotate(-180)"/>
</clipPath>
</defs>
</svg>
