<svg width="12" height="12" viewBox="0 0 12 12" fill="none" xmlns="http://www.w3.org/2000/svg">
<path d="M2.8125 4.06274H0V11.4859H2.8125V4.06274Z" fill="white"/>
<path d="M11.7443 7.16521C11.7443 6.89743 11.6555 6.65005 11.5058 6.45088C11.8049 6.2342 12 5.88238 12 5.4857C12 4.82881 11.4656 4.29439 10.8087 4.29439H8.10059L8.47746 2.9926V2.36886C8.47746 1.21951 7.54238 0.284424 6.39302 0.284424C6.11433 0.284424 5.88762 0.511158 5.88762 0.78983V2.17264C5.69967 2.47344 4.65595 3.64461 3.51562 4.87166V11.0238L4.4887 11.3887C5.06707 11.6056 5.67354 11.7155 6.29126 11.7155H10.0417C10.6986 11.7155 11.233 11.1811 11.233 10.5242C11.233 10.2565 11.1443 10.0092 10.9947 9.81008C11.2937 9.59342 11.4887 9.24137 11.4887 8.84469C11.4887 8.57692 11.3998 8.32953 11.2501 8.13036C11.5492 7.91375 11.7443 7.56193 11.7443 7.16521Z" fill="white"/>
</svg>
