<svg width="14" height="14" viewBox="0 0 14 14" fill="none" xmlns="http://www.w3.org/2000/svg">
<path d="M13.6685 11.9744L10.4498 8.75545C10.9966 7.88481 11.314 6.85575 11.314 5.75139C11.314 2.62698 8.78119 0.0944824 5.6569 0.0944824C2.53262 0.0944824 0 2.62698 0 5.75139C0 8.87591 2.5325 11.4082 5.6569 11.4082C6.85874 11.4082 7.97195 11.0324 8.88797 10.394L12.0684 13.5746C12.2893 13.7954 12.5791 13.9053 12.8684 13.9053C13.1581 13.9053 13.4475 13.7954 13.6688 13.5746C14.1104 13.1325 14.1104 12.4164 13.6685 11.9744ZM5.6569 9.57542C3.54517 9.57542 1.83311 7.86347 1.83311 5.75162C1.83311 3.63977 3.54517 1.92771 5.6569 1.92771C7.76875 1.92771 9.4807 3.63977 9.4807 5.75162C9.4807 7.86347 7.76875 9.57542 5.6569 9.57542Z" fill="#19385E"/>
</svg>
