<svg width="28" height="28" viewBox="0 0 28 28" fill="none" xmlns="http://www.w3.org/2000/svg">
<path d="M4.53234 17.0204C4.7192 17.1457 4.93052 17.2056 5.13959 17.2056C5.49232 17.2056 5.83866 17.0348 6.04959 16.7191C7.81692 14.0729 10.7713 12.4932 13.9525 12.4932C17.1243 12.4932 20.0739 14.0657 21.8425 16.6997C22.1797 17.2019 22.8593 17.3351 23.3605 16.9973C23.8617 16.6594 23.9946 15.9784 23.6574 15.4763C22.2444 13.3718 20.2184 11.819 17.9033 10.9883C19.2917 9.85194 20.1797 8.12389 20.1797 6.19178C20.1797 2.77759 17.4075 0 14 0C10.5925 0 7.82031 2.77759 7.82031 6.19178C7.82031 8.11003 8.69542 9.82723 10.0667 10.9639C7.71531 11.7915 5.6589 13.3631 4.23161 15.5001C3.89566 16.0031 4.0303 16.6838 4.53234 17.0204ZM14 2.19178C16.2013 2.19178 17.9922 3.98619 17.9922 6.19178C17.9922 8.39737 16.2013 10.1918 14 10.1918C11.7987 10.1918 10.0078 8.39737 10.0078 6.19178C10.0078 3.98619 11.7987 2.19178 14 2.19178ZM18.3618 19.4044L16.7312 20.583C16.4886 20.7583 16.3871 21.0692 16.4797 21.3529L17.1364 23.2598C17.1641 23.3448 17.1748 23.4277 17.1712 23.5068C17.148 24.019 16.5073 24.3694 16.0374 24.0298L14.4069 22.8508C14.2856 22.7632 14.1428 22.7193 14.0001 22.7193C13.8573 22.7193 13.7145 22.7632 13.5932 22.8508L11.9627 24.0298C11.4928 24.3694 10.8491 24.019 10.8287 23.5068C10.8256 23.4277 10.8365 23.3447 10.8643 23.2598L11.5203 21.3529C11.613 21.0692 11.5114 20.7583 11.2689 20.583L9.63829 19.4044C9.09579 19.0123 9.37458 18.0822 10.0452 18.0822H12.0606C12.3605 18.0822 12.6263 17.9665 12.7189 17.6828L13.3417 15.7635C13.4454 15.4463 13.7227 15.2877 14.0001 15.2877C14.2774 15.2877 14.5547 15.4463 14.6584 15.7635L15.2812 17.6828C15.3739 17.9665 15.6396 18.0822 15.9395 18.0822H17.9549C18.6255 18.0822 18.9043 19.0123 18.3618 19.4044ZM27.7133 23.24L26.0828 24.4186C25.8402 24.5939 25.7386 24.9048 25.8313 25.1885L26.4879 27.0955C26.5157 27.1804 26.5263 27.2633 26.5228 27.3425C26.4995 27.8546 25.8589 28.205 25.389 27.8654L23.7585 26.6865C23.6372 26.5988 23.4944 26.555 23.3516 26.555C23.2088 26.555 23.066 26.5988 22.9447 26.6865L21.3142 27.8654C20.8444 28.205 20.2006 27.8546 20.1803 27.3425C20.1772 27.2633 20.1881 27.1803 20.2158 27.0955L20.8719 25.1885C20.9646 24.9048 20.863 24.5939 20.6204 24.4186L18.9898 23.24C18.4473 22.8479 18.7261 21.9178 19.3967 21.9178H21.4122C21.7121 21.9178 21.9779 21.8021 22.0705 21.5184L22.6933 19.5991C22.7969 19.2819 23.0742 19.1233 23.3516 19.1233C23.629 19.1233 23.9063 19.2819 24.0099 19.5991L24.6327 21.5184C24.7254 21.8021 24.9911 21.9178 25.2911 21.9178H27.3065C27.977 21.9178 28.2558 22.8479 27.7133 23.24ZM9.0102 23.24L7.37964 24.4186C7.13705 24.5939 7.03549 24.9048 7.12819 25.1885L7.78482 27.0955C7.81255 27.1804 7.82321 27.2633 7.81966 27.3425C7.79641 27.8546 7.15575 28.205 6.68587 27.8654L5.05531 26.6865C4.93402 26.5988 4.79123 26.555 4.64844 26.555C4.50565 26.555 4.36286 26.5988 4.24156 26.6865L2.61105 27.8654C2.14118 28.205 1.49745 27.8546 1.47711 27.3425C1.47399 27.2633 1.48493 27.1803 1.51266 27.0955L2.16869 25.1885C2.26138 24.9048 2.15983 24.5939 1.91723 24.4186L0.286672 23.24C-0.255828 22.8479 0.0229687 21.9178 0.693547 21.9178H2.709C3.00891 21.9178 3.27469 21.8021 3.36733 21.5184L3.99011 19.5991C4.09374 19.2819 4.37106 19.1233 4.64844 19.1233C4.92581 19.1233 5.20313 19.2819 5.30677 19.5991L5.92955 21.5184C6.02224 21.8021 6.28797 21.9178 6.58787 21.9178H8.60333C9.2739 21.9178 9.5527 22.8479 9.0102 23.24Z" fill="#F95738"/>
</svg>
