<svg width="20" height="20" viewBox="0 0 20 20" fill="none" xmlns="http://www.w3.org/2000/svg">
<g clip-path="url(#clip0_612_10848)">
<path d="M18.9532 13.6498L16.9411 12.0013C15.6302 10.9274 13.5953 11.029 12.3994 12.2248L12.3195 12.3047C12.119 12.5053 11.7924 12.5037 11.5947 12.3059L7.707 8.41826C7.51073 8.222 7.50685 7.90633 7.69598 7.7059C7.69943 7.70226 7.70292 7.69866 7.70647 7.69507L7.69578 7.70576C7.69933 7.70221 7.70288 7.69862 7.70642 7.69507C8.89569 6.49439 9.00949 4.45011 7.96771 3.133L6.33574 1.06979C5.28677 -0.256426 3.46366 -0.358871 2.26792 0.83687L1.96816 1.13663C-0.15571 3.2605 -0.656191 7.0885 0.936915 9.63365C0.936915 9.63365 1.87472 11.8086 5.03957 14.9734C8.20441 18.1382 10.3793 19.0761 10.3793 19.0761C12.9482 20.6303 16.7512 20.17 18.8746 18.0466L19.16 17.7611C20.3567 16.5644 20.2632 14.723 18.9532 13.6498ZM17.7144 16.3155L17.4289 16.601C15.9711 18.0588 13.2017 18.3943 11.4376 17.3269L11.3176 17.2542L11.1888 17.1987C11.0306 17.1305 10.6343 16.9156 10.035 16.5137C8.97078 15.7999 7.77566 14.8183 6.48514 13.5278C5.19462 12.2373 4.21307 11.0422 3.49926 9.97793C3.09735 9.37869 2.8824 8.98233 2.81426 8.82421L2.75254 8.68108L2.66984 8.54898C1.59724 6.83541 1.94305 4.05303 3.41378 2.5823L3.71354 2.28254C4.04594 1.95015 4.44335 1.97276 4.73238 2.33817L6.36435 4.40138C6.76674 4.9101 6.71466 5.79578 6.25026 6.26023C5.26233 7.25971 5.26722 8.86982 6.26142 9.86398L10.1491 13.7516C11.1457 14.7482 12.7668 14.7488 13.7652 13.7504L13.8451 13.6706C14.2984 13.2173 15.148 13.1753 15.6455 13.5829L17.6576 15.2314C18.0333 15.5391 18.0553 15.9746 17.7144 16.3155Z" fill="#19385E"/>
</g>
<defs>
<clipPath id="clip0_612_10848">
<rect width="20" height="20" fill="white"/>
</clipPath>
</defs>
</svg>
