<svg width="30" height="30" viewBox="0 0 30 30" fill="none" xmlns="http://www.w3.org/2000/svg">
<g clip-path="url(#clip0_249_347)">
<path d="M29.7326 21.7087C29.652 21.5737 29.1532 20.4899 26.753 18.2622C24.2403 15.9295 24.5779 16.3083 27.6043 12.2749C29.4476 9.81845 30.1845 8.31834 29.9539 7.67704C29.7345 7.06574 28.3788 7.227 28.3788 7.227L23.8709 7.25326C23.8709 7.25326 23.5372 7.20825 23.2878 7.35639C23.0459 7.50265 22.8902 7.84017 22.8902 7.84017C22.8902 7.84017 22.1758 9.74157 21.2232 11.3579C19.215 14.7688 18.4105 14.9488 18.0824 14.7369C17.3192 14.2438 17.5105 12.753 17.5105 11.6955C17.5105 8.38959 18.0111 7.01136 16.5335 6.65509C16.0422 6.53695 15.6822 6.4582 14.4277 6.44507C12.8189 6.42819 11.4556 6.4507 10.685 6.8276C10.1712 7.07887 9.77551 7.63954 10.0174 7.67141C10.3156 7.71079 10.9906 7.8533 11.3488 8.34084C11.8119 8.96901 11.795 10.3829 11.795 10.3829C11.795 10.3829 12.0613 14.2738 11.1744 14.7576C10.5649 15.0895 9.73051 14.4125 7.93975 11.3167C7.02281 9.73219 6.32901 7.97894 6.32901 7.97894C6.32901 7.97894 6.19588 7.65266 5.95773 7.47827C5.66896 7.26638 5.26393 7.19888 5.26393 7.19888L0.977366 7.22513C0.977366 7.22513 0.334193 7.24388 0.0979258 7.52328C-0.11209 7.77267 0.0810496 8.28646 0.0810496 8.28646C0.0810496 8.28646 3.43755 16.1377 7.23658 20.0961C10.7225 23.7245 14.679 23.4863 14.679 23.4863H16.4716C16.4716 23.4863 17.0135 23.4263 17.2892 23.1282C17.5442 22.8544 17.5348 22.3406 17.5348 22.3406C17.5348 22.3406 17.4992 19.9348 18.6168 19.5804C19.7175 19.2316 21.1314 21.9056 22.6296 22.935C23.7622 23.7132 24.6229 23.5426 24.6229 23.5426L28.63 23.4863C28.63 23.4863 30.7264 23.357 29.7326 21.7087Z" fill="#19385E"/>
</g>
<defs>
<clipPath id="clip0_249_347">
<rect width="30" height="30" fill="white"/>
</clipPath>
</defs>
</svg>
