<svg width="56" height="56" viewBox="0 0 56 56" fill="none" xmlns="http://www.w3.org/2000/svg">
<g clip-path="url(#clip0_249_797)">
<path d="M47.4782 0H8.52177C3.82257 0 0 3.82257 0 8.52177V35.3044C0 40.0035 3.82257 43.8261 8.52177 43.8261H34.8004L46.6164 55.6445C46.8502 55.8758 47.1619 56 47.4783 56C47.6341 56 47.7924 55.9684 47.9434 55.9074C48.3987 55.7199 48.6958 55.2744 48.6958 54.7826V43.7408C52.8203 43.1468 56.0001 39.5895 56.0001 35.3043V8.52177C56 3.82257 52.1773 0 47.4782 0ZM53.5651 35.3043C53.5651 38.6619 50.8333 41.3912 47.4782 41.3912C46.8062 41.3912 46.2608 41.9366 46.2608 42.6086V51.8437L36.1662 41.7467C35.9374 41.5203 35.6281 41.3912 35.3043 41.3912H8.52177C5.16668 41.3912 2.43486 38.6618 2.43486 35.3043V8.52177C2.43486 5.16417 5.16668 2.43486 8.52177 2.43486H47.4782C50.8333 2.43486 53.5651 5.16428 53.5651 8.52177V35.3043Z" fill="#F95738"/>
<path d="M28 29.2173C25.9863 29.2173 24.3478 30.8559 24.3478 32.8694C24.3478 34.883 25.9863 36.5216 28 36.5216C30.0136 36.5216 31.6521 34.883 31.6521 32.8694C31.6521 30.8559 30.0136 29.2173 28 29.2173ZM28 34.0869C27.328 34.0869 26.7825 33.5391 26.7825 32.8694C26.7825 32.1998 27.328 31.652 28 31.652C28.6719 31.652 29.2174 32.1998 29.2174 32.8694C29.2174 33.5391 28.6719 34.0869 28 34.0869Z" fill="#F95738"/>
<path d="M31.8908 8.46823C31.2018 7.7281 30.2278 7.30444 29.2174 7.30444H26.7826C25.7722 7.30444 24.8008 7.7281 24.1117 8.46823C23.4226 9.20597 23.0695 10.2067 23.1402 11.2342L24.1701 23.2303C24.3113 25.222 25.9865 26.7826 28 26.7826C29.9964 26.7826 31.6717 25.2219 31.8104 23.2497L32.8599 11.2171C32.9329 10.2092 32.5798 9.20848 31.8908 8.46823ZM30.4348 11.0248L29.383 23.0599C29.3319 23.783 28.7232 24.3479 27.9806 24.3479C27.255 24.3479 26.6488 23.783 26.5951 23.0404L25.5676 11.0443C25.5433 10.701 25.6577 10.3747 25.8914 10.1263C26.1251 9.87797 26.4416 9.73919 26.7825 9.73919H29.2174C29.5583 9.73919 29.8748 9.87797 30.1085 10.1263C30.3423 10.3747 30.4567 10.701 30.4348 11.0248Z" fill="#F95738"/>
</g>
<defs>
<clipPath id="clip0_249_797">
<rect width="56" height="56" fill="white"/>
</clipPath>
</defs>
</svg>
