<svg width="30" height="30" viewBox="0 0 30 30" fill="none" xmlns="http://www.w3.org/2000/svg">
<path d="M20.6523 12.8906C20.6523 12.2434 20.1277 11.7188 19.4805 11.7188H7.41016C6.76293 11.7188 6.23828 12.2434 6.23828 12.8906C6.23828 13.5379 6.76293 14.0625 7.41016 14.0625H19.4805C20.1277 14.0625 20.6523 13.5379 20.6523 12.8906Z" fill="url(#paint0_linear_572_2759)"/>
<path d="M7.41016 16.4062C6.76293 16.4062 6.23828 16.9309 6.23828 17.5781C6.23828 18.2254 6.76293 18.75 7.41016 18.75H14.7409C15.3881 18.75 15.9128 18.2254 15.9128 17.5781C15.9128 16.9309 15.3881 16.4062 14.7409 16.4062H7.41016Z" fill="url(#paint1_linear_572_2759)"/>
<path d="M10.1634 27.6562H6.24414C4.9518 27.6562 3.90039 26.6048 3.90039 25.3125V4.6875C3.90039 3.39516 4.9518 2.34375 6.24414 2.34375H20.6517C21.944 2.34375 22.9954 3.39516 22.9954 4.6875V11.8945C22.9954 12.5418 23.5201 13.0664 24.1673 13.0664C24.8145 13.0664 25.3392 12.5418 25.3392 11.8945V4.6875C25.3392 2.10281 23.2364 0 20.6517 0H6.24414C3.65945 0 1.55664 2.10281 1.55664 4.6875V25.3125C1.55664 27.8972 3.65945 30 6.24414 30H10.1634C10.8106 30 11.3353 29.4754 11.3353 28.8281C11.3353 28.1809 10.8106 27.6562 10.1634 27.6562Z" fill="url(#paint2_linear_572_2759)"/>
<path d="M27.4156 16.9672C26.0449 15.5964 23.8146 15.5964 22.4447 16.9662L16.011 23.3858C15.8743 23.5221 15.7735 23.69 15.7174 23.8747L14.3162 28.4875C14.192 28.8965 14.3003 29.3406 14.5987 29.6465C14.8223 29.8756 15.1261 30 15.4376 30C15.5419 30 15.6471 29.9861 15.7504 29.9574L20.4804 28.6472C20.675 28.5933 20.8524 28.49 20.9954 28.3473L27.4157 21.9391C28.7864 20.5683 28.7864 18.338 27.4156 16.9672ZM19.5578 26.4708L17.1781 27.13L17.8745 24.8373L22.2157 20.5058L23.8733 22.1634L19.5578 26.4708ZM25.7593 20.2811L25.5322 20.5077L23.8749 18.8504L24.1012 18.6245C24.5581 18.1676 25.3015 18.1676 25.7584 18.6245C26.2154 19.0815 26.2153 19.8249 25.7593 20.2811Z" fill="url(#paint3_linear_572_2759)"/>
<path d="M19.4805 7.03125H7.41016C6.76293 7.03125 6.23828 7.5559 6.23828 8.20312C6.23828 8.85035 6.76293 9.375 7.41016 9.375H19.4805C20.1277 9.375 20.6523 8.85035 20.6523 8.20312C20.6523 7.5559 20.1277 7.03125 19.4805 7.03125Z" fill="url(#paint4_linear_572_2759)"/>
<defs>
<linearGradient id="paint0_linear_572_2759" x1="13.4453" y1="11.7188" x2="13.4453" y2="14.0625" gradientUnits="userSpaceOnUse">
<stop stop-color="#24E3C1"/>
<stop offset="1" stop-color="#00B6E3"/>
</linearGradient>
<linearGradient id="paint1_linear_572_2759" x1="11.0755" y1="16.4062" x2="11.0755" y2="18.75" gradientUnits="userSpaceOnUse">
<stop stop-color="#24E3C1"/>
<stop offset="1" stop-color="#00B6E3"/>
</linearGradient>
<linearGradient id="paint2_linear_572_2759" x1="13.4479" y1="0" x2="13.4479" y2="30" gradientUnits="userSpaceOnUse">
<stop stop-color="#24E3C1"/>
<stop offset="1" stop-color="#00B6E3"/>
</linearGradient>
<linearGradient id="paint3_linear_572_2759" x1="21.3547" y1="15.939" x2="21.3547" y2="30" gradientUnits="userSpaceOnUse">
<stop stop-color="#24E3C1"/>
<stop offset="1" stop-color="#00B6E3"/>
</linearGradient>
<linearGradient id="paint4_linear_572_2759" x1="13.4453" y1="7.03125" x2="13.4453" y2="9.375" gradientUnits="userSpaceOnUse">
<stop stop-color="#24E3C1"/>
<stop offset="1" stop-color="#00B6E3"/>
</linearGradient>
</defs>
</svg>
